<?xml version="1.0" encoding="UTF-8" standalone="no"?>
<svg
   xmlns:dc="http://purl.org/dc/elements/1.1/"
   xmlns:cc="http://creativecommons.org/ns#"
   xmlns:rdf="http://www.w3.org/1999/02/22-rdf-syntax-ns#"
   xmlns:svg="http://www.w3.org/2000/svg"
   xmlns="http://www.w3.org/2000/svg"
   xmlns:sodipodi="http://sodipodi.sourceforge.net/DTD/sodipodi-0.dtd"
   xmlns:inkscape="http://www.inkscape.org/namespaces/inkscape"
   id="Layer_1"
   data-name="Layer 1"
   viewBox="0 0 36.000005 35.99999"
   version="1.1"
   sodipodi:docname="Ripple_logo.svg"
   width="36"
   height="36"
   inkscape:version="0.92.3 (2405546, 2018-03-11)">
  <metadata
     id="metadata64">
    <rdf:RDF>
      <cc:Work
         rdf:about="">
        <dc:format>image/svg+xml</dc:format>
        <dc:type
           rdf:resource="http://purl.org/dc/dcmitype/StillImage" />
        <dc:title>Ripple_logo_RGB</dc:title>
      </cc:Work>
    </rdf:RDF>
  </metadata>
  <sodipodi:namedview
     pagecolor="#ffffff"
     bordercolor="#666666"
     borderopacity="1"
     objecttolerance="10"
     gridtolerance="10"
     guidetolerance="10"
     inkscape:pageopacity="0"
     inkscape:pageshadow="2"
     inkscape:window-width="1920"
     inkscape:window-height="1017"
     id="namedview62"
     showgrid="false"
     inkscape:showpageshadow="false"
     showborder="false"
     inkscape:zoom="8.0842188"
     inkscape:cx="12.903908"
     inkscape:cy="27.868985"
     inkscape:window-x="-8"
     inkscape:window-y="-8"
     inkscape:window-maximized="1"
     inkscape:current-layer="Layer_1" />
  <defs
     id="defs43">
    <linearGradient
       id="linear-gradient"
       x1="83.681999"
       y1="72.488297"
       x2="231.177"
       y2="219.9832"
       gradientUnits="userSpaceOnUse"
       gradientTransform="matrix(0.1728617,0,0,0.16182344,-4.2810227,-5.6272033)">
      <stop
         offset="0"
         stop-color="#00aae4"
         id="stop38" />
      <stop
         offset="1"
         stop-color="#006097"
         id="stop40" />
    </linearGradient>
  </defs>
  <title
     id="title45">Ripple_logo_RGB</title>
  <path
     d="m 30.69441,21.834468 c -1.30066,-0.703045 -2.765371,-0.906814 -4.216204,-0.954245 -1.217233,-0.03981 -3.033304,-0.770007 -3.033304,-2.84294 0,-1.544467 1.337415,-2.787451 3.033931,-2.84291 1.450701,-0.04743 2.915279,-0.251457 4.215577,-0.95426 A 7.6833041,7.1926805 0 1 0 19.169475,8.011286 c 0,1.3935797 0.529464,2.676019 1.205035,3.865453 0.568199,1.000394 0.855666,2.857147 -1.093084,3.91038 -1.449657,0.78352 -3.258841,0.287398 -4.162513,-1.066503 -0.763318,-1.143547 -1.684777,-2.215015 -2.974866,-2.91241 a 7.6832694,7.1926481 0 1 0 0,12.458057 c 1.289725,-0.697138 2.211274,-1.767913 2.974106,-2.910762 0.626416,-0.938466 2.190905,-2.134704 4.163203,-1.06791 1.447438,0.782905 1.894908,2.498225 1.092482,3.911094 -0.675474,1.189261 -1.204256,2.471428 -1.204256,3.864766 A 7.6832004,7.1925832 0 1 0 30.69441,21.834468 Z"
     style="fill:url(#linear-gradient);stroke-width:0.16725153"
     id="path59"
     inkscape:connector-curvature="0" />
</svg>
